<svg width="134" height="134" viewBox="0 0 134 134" fill="none" xmlns="http://www.w3.org/2000/svg">
<g filter="url(#filter0_d_25_25823)">
<path d="M3.89893 3.87988H106.632C117.678 3.87988 126.632 12.8342 126.632 23.8799V126.207H23.8989C12.8532 126.207 3.89893 117.253 3.89893 106.207V3.87988Z" fill="#F9FAFB"/>
</g>
<path fill-rule="evenodd" clip-rule="evenodd" d="M56.3565 76.226C47.3549 68.1789 43.6722 57.6906 48.8846 47.894C55.1324 36.1517 57.2717 53.7594 66.8657 50.6417C76.4597 47.5241 89.2424 55.2735 82.7043 69.0815C76.5838 82.0075 65.358 84.2732 56.3565 76.226Z" fill="#5FD788"/>
<path d="M76.4562 54.2642H56.864C56.3444 54.2642 55.8458 54.0402 55.4786 53.6416C55.1113 53.243 54.9048 52.702 54.9048 52.1383V47.8864C54.9048 47.495 55.1972 47.1777 55.5579 47.1777H77.7623C77.9355 47.1777 78.1017 47.2524 78.2242 47.3853C78.3466 47.5181 78.4154 47.6985 78.4154 47.8864V52.1383C78.4154 52.702 78.209 53.2431 77.8416 53.6416C77.4743 54.0401 76.9757 54.2642 76.4562 54.2642H76.4562ZM56.2109 48.595V52.1383C56.2109 52.3262 56.2797 52.5065 56.4022 52.6394C56.5246 52.7722 56.6908 52.8469 56.864 52.8469H76.4562C76.6293 52.8469 76.7955 52.7722 76.918 52.6394C77.0404 52.5065 77.1092 52.3262 77.1092 52.1383V48.595H56.2109Z" fill="#424B25"/>
<path d="M76.4559 79.7762H56.8637C56.6308 79.7755 56.4159 79.6408 56.2996 79.4218C56.1095 79.0675 51.6392 70.688 51.6392 64.8941C51.6348 63.1993 52.0587 61.5356 52.8646 60.0838C53.6707 58.632 54.8279 57.4475 56.2107 56.6595V53.5557H57.5169V57.0989C57.5169 57.3824 57.3612 57.6387 57.1212 57.7503C55.874 58.391 54.8197 59.4021 54.0807 60.6666C53.3416 61.931 52.948 63.3968 52.9454 64.8941C52.9454 69.674 56.4028 76.7144 57.2446 78.3585H76.0755C76.9172 76.7143 80.3747 69.6692 80.3747 64.8941C80.3718 63.3961 79.9776 61.9297 79.238 60.6653C78.498 59.4008 77.4429 58.3897 76.1951 57.7494C75.9569 57.6367 75.8029 57.3811 75.8032 57.0989V53.5557H77.1094V56.6595C78.4922 57.4475 79.6493 58.632 80.4555 60.0838C81.2613 61.5356 81.6853 63.1993 81.6809 64.8941C81.6809 70.6879 77.2105 79.0671 77.0205 79.4218C76.9041 79.6407 76.6893 79.7755 76.4563 79.7762L76.4559 79.7762Z" fill="#424B25"/>
<path d="M74.4967 76.233H58.823C58.5483 76.233 58.3031 76.0467 58.2089 75.7667C58.1046 75.4437 55.5576 67.8121 55.5576 64.1861C55.5646 63.0137 55.9457 61.8798 56.6363 60.9779C57.327 60.076 58.2845 59.4619 59.3454 59.2398C59.3883 59.23 59.432 59.2253 59.4761 59.2256H73.8437C73.8877 59.2253 73.9314 59.23 73.9743 59.2398C75.0352 59.4619 75.9927 60.076 76.6834 60.9779C77.3741 61.8799 77.7551 63.0137 77.7621 64.1861C77.7621 67.8122 75.2151 75.4436 75.1108 75.7667C75.0166 76.0467 74.7714 76.233 74.4968 76.233H74.4967ZM59.285 74.8157H74.0347C74.5881 73.0972 76.4558 67.0788 76.4558 64.186C76.4496 63.3514 76.18 62.5443 75.6913 61.8993C75.203 61.2546 74.5257 60.811 73.7724 60.6427H59.5488C58.7975 60.8158 58.1226 61.2606 57.6345 61.9043C57.1467 62.5481 56.8747 63.3527 56.8634 64.186C56.8634 67.0788 58.731 73.0971 59.2844 74.8157H59.285Z" fill="#424B25"/>
<path d="M70.5783 76.2327H62.7415C62.3808 76.2327 62.0884 75.9154 62.0884 75.524V71.2721C62.0884 70.8808 62.3808 70.5635 62.7415 70.5635H70.5783C70.7515 70.5635 70.9177 70.6381 71.0401 70.771C71.1626 70.9039 71.2314 71.0842 71.2314 71.2721V75.524C71.2314 75.712 71.1626 75.8923 71.0401 76.0252C70.9177 76.158 70.7515 76.2327 70.5783 76.2327ZM63.3945 74.8154H69.9253V71.9808H63.3945V74.8154Z" fill="#424B25"/>
<path d="M66.6601 69.1464C65.9674 69.1464 65.3029 68.8478 64.8129 68.3163C64.3231 67.7845 64.0479 67.0635 64.0479 66.3118C64.0479 64.9363 65.819 62.7246 66.1741 62.2952C66.3012 62.1516 66.4767 62.0703 66.6601 62.0703C66.8435 62.0703 67.019 62.1516 67.1461 62.2952C67.5012 62.7245 69.2724 64.9362 69.2724 66.3118C69.2724 67.0635 68.9972 67.7845 68.5074 68.3163C68.0173 68.8478 67.3528 69.1464 66.6601 69.1464H66.6601ZM66.6601 63.8663C65.9671 64.806 65.354 65.8604 65.354 66.3118C65.354 66.8183 65.603 67.2862 66.0071 67.5393C66.4112 67.7924 66.9091 67.7924 67.3132 67.5393C67.7173 67.2862 67.9663 66.8183 67.9663 66.3118C67.9663 65.8724 67.3537 64.81 66.6601 63.8663Z" fill="#424B25"/>
<path d="M66.0068 68.4375H67.313V71.2721H66.0068V68.4375Z" fill="#424B25"/>
<path d="M63.3945 43.6347H62.0883C62.0883 43.2364 61.9466 43.0677 61.6265 42.7185C61.0924 42.2503 60.7822 41.5452 60.7822 40.8001C60.7822 40.055 61.0924 39.3499 61.6265 38.8816C61.9466 38.5323 62.0883 38.3637 62.0883 37.9655C62.0883 37.5672 61.9466 37.3985 61.6265 37.0493C61.0988 36.5757 60.7898 35.874 60.7822 35.1309H62.0884C62.0884 35.5292 62.2301 35.6978 62.5502 36.047C63.0779 36.5206 63.3869 37.2223 63.3945 37.9655C63.3869 38.7086 63.0779 39.4103 62.5502 39.8839C62.2301 40.2332 62.0884 40.4018 62.0884 40.8001C62.0884 41.1983 62.2301 41.367 62.5502 41.7162C63.0779 42.1898 63.3869 42.8915 63.3945 43.6347Z" fill="#424B25"/>
<path d="M67.9658 43.6347H66.6596C66.6596 43.2364 66.5179 43.0677 66.1978 42.7185C65.6637 42.2503 65.3535 41.5452 65.3535 40.8001C65.3535 40.055 65.6637 39.3499 66.1978 38.8816C66.5179 38.5323 66.6596 38.3637 66.6596 37.9655C66.6596 37.5672 66.5179 37.3985 66.1978 37.0493C65.6701 36.5757 65.3611 35.874 65.3535 35.1309H66.6597C66.6597 35.5292 66.8014 35.6978 67.1215 36.047C67.6492 36.5206 67.9582 37.2223 67.9658 37.9655C67.9582 38.7086 67.6491 39.4103 67.1215 39.8839C66.8014 40.2332 66.6597 40.4018 66.6597 40.8001C66.6597 41.1983 66.8014 41.367 67.1215 41.7162C67.6492 42.1898 67.9582 42.8915 67.9658 43.6347Z" fill="#424B25"/>
<path d="M72.5375 43.6347H71.2314C71.2314 43.2364 71.0897 43.0677 70.7696 42.7185C70.2355 42.2503 69.9253 41.5452 69.9253 40.8001C69.9253 40.055 70.2355 39.3499 70.7696 38.8816C71.0897 38.5323 71.2314 38.3637 71.2314 37.9655C71.2314 37.5672 71.0897 37.3985 70.7696 37.0493C70.2419 36.5757 69.9328 35.874 69.9253 35.1309H71.2314C71.2314 35.5292 71.3731 35.6978 71.6933 36.047C72.221 36.5206 72.53 37.2223 72.5375 37.9655C72.53 38.7086 72.2209 39.4103 71.6933 39.8839C71.3731 40.2332 71.2314 40.4018 71.2314 40.8001C71.2314 41.1983 71.3731 41.367 71.6933 41.7162C72.221 42.1898 72.53 42.8915 72.5375 43.6347Z" fill="#424B25"/>
<path d="M55.5576 50.0127H75.8029V51.43H55.5576V50.0127Z" fill="#424B25"/>
<path d="M28.8595 104.705C28.8595 104.465 28.7761 104.335 28.6095 104.314C28.5574 104.304 28.5053 104.299 28.4532 104.299H27.9376L24.3438 95.3301H23.6407L20.1563 104.299H19.172V104.705H21.9688C21.9688 104.465 21.8907 104.335 21.7345 104.314C21.6824 104.304 21.6303 104.299 21.5782 104.299H20.7813L21.9532 101.268H25.1876L26.3595 104.299H25.3126V104.705H28.8595ZM25.0001 100.814H22.1251L23.5626 97.0801L25.0001 100.814ZM32.9063 104.314H31.7813V100.877C31.8543 99.9811 32.1563 99.3092 32.6876 98.8613C32.8647 98.7155 33.0157 98.6426 33.1407 98.6426C33.297 98.6426 33.448 98.7728 33.5938 99.0332C33.7605 99.3249 33.9272 99.4967 34.0938 99.5488C34.1668 99.5697 34.2397 99.5801 34.3126 99.5801C34.6563 99.5801 34.8803 99.4186 34.9845 99.0957C35.0053 99.0124 35.0157 98.9342 35.0157 98.8613C35.0157 98.3822 34.7761 98.0905 34.297 97.9863C34.1928 97.9655 34.0834 97.9551 33.9688 97.9551C33.323 97.9551 32.7501 98.2259 32.2501 98.7676C32.0418 98.9967 31.8751 99.2572 31.7501 99.5488L31.6876 98.0488H29.3282V98.4395H30.4376V103.393C30.4376 103.872 30.297 104.158 30.0157 104.252C29.8699 104.294 29.6407 104.314 29.3282 104.314V104.705H33.297C33.297 104.476 33.2188 104.351 33.0626 104.33C33.0209 104.32 32.9688 104.314 32.9063 104.314ZM37.172 101.361C37.1824 99.3092 37.8282 98.278 39.1095 98.2676C40.3907 98.2884 41.0365 99.2988 41.047 101.299C41.0365 103.403 40.4011 104.46 39.1407 104.471C37.8386 104.45 37.1824 103.413 37.172 101.361ZM39.1563 97.877C38.1043 97.877 37.2397 98.2363 36.5626 98.9551C35.9793 99.5905 35.6876 100.372 35.6876 101.299C35.6876 102.57 36.1459 103.538 37.0626 104.205C37.6668 104.643 38.3438 104.861 39.0938 104.861C40.1251 104.861 40.974 104.497 41.6407 103.768C42.2449 103.111 42.547 102.304 42.547 101.346C42.547 100.075 42.0782 99.1165 41.1407 98.4707C40.5574 98.0749 39.8959 97.877 39.1563 97.877ZM46.6563 104.314H46.0313V100.877C46.0522 99.9707 46.349 99.304 46.922 98.877C47.1824 98.679 47.448 98.5801 47.7188 98.5801C48.2188 98.5801 48.5626 98.8665 48.7501 99.4395C48.823 99.679 48.8595 99.9447 48.8595 100.236V103.393C48.8595 103.861 48.7553 104.143 48.547 104.236C48.4011 104.288 48.172 104.314 47.8595 104.314V104.705H51.2032C51.2032 104.476 51.1251 104.351 50.9688 104.33C50.9272 104.32 50.8751 104.314 50.8126 104.314H50.2032V100.408V100.236C50.3699 99.4759 50.724 98.9603 51.2657 98.6895C51.4532 98.5957 51.6355 98.5488 51.8126 98.5488C52.3334 98.5488 52.698 98.8249 52.9063 99.377C53.0001 99.627 53.047 99.9134 53.047 100.236V103.393C53.047 103.861 52.9376 104.143 52.7188 104.236C52.573 104.288 52.3438 104.314 52.0313 104.314V104.705H55.5001C55.5001 104.476 55.422 104.351 55.2657 104.33C55.224 104.32 55.172 104.314 55.1095 104.314H54.3751V100.393C54.3751 99.3405 54.0261 98.5957 53.3282 98.1582C53.0157 97.9707 52.6772 97.877 52.3126 97.877C51.4376 97.877 50.7553 98.304 50.2657 99.1582C50.2032 99.2728 50.1459 99.3926 50.0938 99.5176C49.8959 98.7363 49.4845 98.2259 48.8595 97.9863C48.672 97.9134 48.4793 97.877 48.2813 97.877C47.4897 97.877 46.8438 98.2207 46.3438 98.9082C46.2188 99.0957 46.1095 99.2936 46.0157 99.502L45.9532 98.0488H43.5782V98.4395H44.7032V103.393C44.7032 103.872 44.5574 104.158 44.2657 104.252C44.1095 104.294 43.8803 104.314 43.5782 104.314V104.705H47.0313C47.0313 104.476 46.9584 104.351 46.8126 104.33C46.7605 104.32 46.7084 104.314 46.6563 104.314ZM61.9532 104.861C62.7032 104.861 63.1511 104.486 63.297 103.736C63.3178 103.58 63.3334 103.413 63.3438 103.236L62.9376 103.221C62.8647 103.971 62.6668 104.351 62.3438 104.361C62.0834 104.34 61.948 104.075 61.9376 103.564V100.268C61.9168 98.6842 61.0574 97.8874 59.3595 97.877C58.1511 97.877 57.349 98.153 56.9532 98.7051C56.8282 98.8822 56.7657 99.0592 56.7657 99.2363C56.7657 99.5697 56.922 99.7728 57.2345 99.8457C57.3074 99.8561 57.3751 99.8613 57.4376 99.8613C57.7188 99.8613 57.922 99.6947 58.047 99.3613C58.1928 98.9551 58.2813 98.7259 58.3126 98.6738C58.5105 98.403 58.8074 98.2676 59.2032 98.2676C60.1303 98.2884 60.599 98.8301 60.6095 99.8926V100.877C58.0157 100.887 56.6095 101.486 56.3907 102.674C56.3699 102.788 56.3595 102.913 56.3595 103.049C56.3595 103.872 56.7188 104.424 57.4376 104.705C57.7084 104.809 58.0001 104.861 58.3126 104.861C59.073 104.861 59.7032 104.601 60.2032 104.08C60.3907 103.882 60.5313 103.669 60.6251 103.439C60.7605 104.377 61.2032 104.851 61.9532 104.861ZM58.8907 104.221C58.2345 104.221 57.8595 103.856 57.7657 103.127C57.7553 103.023 57.7501 102.913 57.7501 102.799C57.7501 102.101 58.1355 101.658 58.9063 101.471C59.3126 101.377 59.8803 101.325 60.6095 101.314V102.611C60.4324 103.33 60.0574 103.825 59.4845 104.096C59.2761 104.179 59.0782 104.221 58.8907 104.221ZM63.7188 98.4551H64.8126V102.768C64.8855 104.132 65.5157 104.835 66.7032 104.877C67.6824 104.877 68.2918 104.288 68.5313 103.111C68.5313 103.101 68.5313 103.09 68.5313 103.08L68.1095 103.002C67.8907 103.929 67.5157 104.398 66.9845 104.408C66.4324 104.387 66.1511 103.986 66.1407 103.205V98.4551H68.5001V98.0645H66.1407V96.252L64.8126 96.5801V98.0645H63.7188V98.4551ZM72.2345 104.314H71.5313V100.861C71.5313 99.903 71.849 99.2311 72.4845 98.8457C72.7449 98.6895 73.0053 98.6113 73.2657 98.6113C73.8907 98.6113 74.3178 98.9186 74.547 99.5332C74.6303 99.7728 74.672 100.049 74.672 100.361V103.393C74.672 103.851 74.573 104.127 74.3751 104.221C74.2397 104.283 74.0105 104.314 73.6876 104.314V104.705H77.1251C77.1251 104.476 77.047 104.351 76.8907 104.33C76.849 104.32 76.797 104.314 76.7345 104.314H76.0157V100.408C76.0157 99.2415 75.6251 98.4655 74.8438 98.0801C74.5626 97.9447 74.2605 97.877 73.9376 97.877C73.1563 97.877 72.5053 98.1634 71.9845 98.7363C71.7865 98.9655 71.6355 99.2155 71.5313 99.4863V94.5488H69.0782V94.9395H70.1876V103.393C70.1876 103.872 70.047 104.158 69.7657 104.252C69.6199 104.294 69.3907 104.314 69.0782 104.314V104.705H72.6251C72.6251 104.476 72.547 104.351 72.3907 104.33C72.349 104.32 72.297 104.314 72.2345 104.314ZM81.4063 98.2676C82.1147 98.2676 82.573 98.5905 82.7813 99.2363C82.8438 99.4342 82.8751 99.6426 82.8751 99.8613C82.8751 100.372 82.6459 100.684 82.1876 100.799C81.9272 100.861 81.5678 100.887 81.1095 100.877L79.5782 100.83C79.6199 99.6009 79.9949 98.804 80.7032 98.4395C80.922 98.3249 81.1563 98.2676 81.4063 98.2676ZM84.172 103.189L83.7813 103.049C83.448 103.778 82.9168 104.221 82.1876 104.377C82.0209 104.408 81.8595 104.424 81.7032 104.424C80.599 104.424 79.922 103.726 79.672 102.33C79.6199 102.007 79.5886 101.653 79.5782 101.268L81.3751 101.299C82.7084 101.32 83.5574 101.184 83.922 100.893C84.1615 100.684 84.2813 100.403 84.2813 100.049C84.2813 99.3092 83.9063 98.7259 83.1563 98.2988C82.6355 98.0176 82.0418 97.877 81.3751 97.877C80.1147 97.877 79.1876 98.3822 78.5938 99.3926C78.2605 99.9759 78.0938 100.648 78.0938 101.408C78.0938 102.742 78.5782 103.721 79.547 104.346C80.099 104.689 80.724 104.861 81.422 104.861C82.5886 104.861 83.4376 104.439 83.9688 103.596C84.0418 103.46 84.1095 103.325 84.172 103.189ZM88.8282 104.314H87.7032V100.877C87.7761 99.9811 88.0782 99.3092 88.6095 98.8613C88.7865 98.7155 88.9376 98.6426 89.0626 98.6426C89.2188 98.6426 89.3699 98.7728 89.5157 99.0332C89.6824 99.3249 89.849 99.4967 90.0157 99.5488C90.0886 99.5697 90.1615 99.5801 90.2345 99.5801C90.5782 99.5801 90.8022 99.4186 90.9063 99.0957C90.9272 99.0124 90.9376 98.9342 90.9376 98.8613C90.9376 98.3822 90.698 98.0905 90.2188 97.9863C90.1147 97.9655 90.0053 97.9551 89.8907 97.9551C89.2449 97.9551 88.672 98.2259 88.172 98.7676C87.9636 98.9967 87.797 99.2572 87.672 99.5488L87.6095 98.0488H85.2501V98.4395H86.3595V103.393C86.3595 103.872 86.2188 104.158 85.9376 104.252C85.7918 104.294 85.5626 104.314 85.2501 104.314V104.705H89.2188C89.2188 104.476 89.1407 104.351 88.9845 104.33C88.9428 104.32 88.8907 104.314 88.8282 104.314ZM97.1095 104.861C97.8595 104.861 98.3074 104.486 98.4532 103.736C98.474 103.58 98.4897 103.413 98.5001 103.236L98.0938 103.221C98.0209 103.971 97.823 104.351 97.5001 104.361C97.2397 104.34 97.1043 104.075 97.0938 103.564V100.268C97.073 98.6842 96.2136 97.8874 94.5157 97.877C93.3074 97.877 92.5053 98.153 92.1095 98.7051C91.9845 98.8822 91.922 99.0592 91.922 99.2363C91.922 99.5697 92.0782 99.7728 92.3907 99.8457C92.4636 99.8561 92.5313 99.8613 92.5938 99.8613C92.8751 99.8613 93.0782 99.6947 93.2032 99.3613C93.349 98.9551 93.4376 98.7259 93.4688 98.6738C93.6668 98.403 93.9636 98.2676 94.3595 98.2676C95.2865 98.2884 95.7553 98.8301 95.7657 99.8926V100.877C93.172 100.887 91.7657 101.486 91.547 102.674C91.5261 102.788 91.5157 102.913 91.5157 103.049C91.5157 103.872 91.8751 104.424 92.5938 104.705C92.8647 104.809 93.1563 104.861 93.4688 104.861C94.2293 104.861 94.8595 104.601 95.3595 104.08C95.547 103.882 95.6876 103.669 95.7813 103.439C95.9168 104.377 96.3595 104.851 97.1095 104.861ZM94.047 104.221C93.3907 104.221 93.0157 103.856 92.922 103.127C92.9115 103.023 92.9063 102.913 92.9063 102.799C92.9063 102.101 93.2918 101.658 94.0626 101.471C94.4688 101.377 95.0365 101.325 95.7657 101.314V102.611C95.5886 103.33 95.2136 103.825 94.6407 104.096C94.4324 104.179 94.2345 104.221 94.047 104.221ZM101.422 107.283V104.064C101.964 104.554 102.615 104.82 103.375 104.861C104.323 104.861 105.109 104.502 105.734 103.783C106.318 103.106 106.609 102.247 106.609 101.205C106.609 100.007 106.271 99.1009 105.594 98.4863C105.136 98.0801 104.589 97.877 103.953 97.877C103.016 97.877 102.292 98.2363 101.781 98.9551C101.615 99.1842 101.484 99.4342 101.391 99.7051L101.313 98.0488H98.9688V98.4395H100.078V106.361C100.078 106.83 99.9428 107.111 99.672 107.205C99.5157 107.257 99.2813 107.283 98.9688 107.283V107.674H102.844C102.844 107.445 102.766 107.32 102.609 107.299C102.568 107.288 102.516 107.283 102.453 107.283H101.422ZM103.391 98.5332C104.318 98.5332 104.875 99.1738 105.063 100.455C105.104 100.747 105.125 101.054 105.125 101.377C105.125 102.971 104.714 103.955 103.891 104.33C103.682 104.424 103.458 104.471 103.219 104.471C102.458 104.471 101.927 104.049 101.625 103.205C101.479 102.778 101.406 102.268 101.406 101.674C101.406 100.33 101.74 99.3978 102.406 98.877C102.708 98.6478 103.037 98.5332 103.391 98.5332ZM108.891 107.189C108.724 107.189 108.594 107.059 108.5 106.799C108.375 106.476 108.255 106.278 108.141 106.205C108.047 106.143 107.938 106.111 107.813 106.111C107.469 106.111 107.266 106.257 107.203 106.549C107.193 106.601 107.188 106.648 107.188 106.689C107.188 107.075 107.417 107.361 107.875 107.549C108.104 107.643 108.344 107.689 108.594 107.689C109.417 107.689 110.13 107.189 110.734 106.189C110.974 105.794 111.208 105.314 111.438 104.752L113.75 98.9707C113.854 98.679 113.974 98.5124 114.109 98.4707C114.172 98.4603 114.245 98.4551 114.328 98.4551C114.547 98.4551 114.672 98.3978 114.703 98.2832C114.714 98.2207 114.719 98.1426 114.719 98.0488H112.344V98.4551H113.484L111.531 103.314L109.453 98.4551H110.484V98.0488H107.313V98.4551H108.047L110.906 104.768C110.344 106.111 109.813 106.893 109.313 107.111C109.167 107.163 109.026 107.189 108.891 107.189Z" fill="#5FD788"/>
<defs>
<filter id="filter0_d_25_25823" x="0.898926" y="0.879883" width="132.733" height="132.327" filterUnits="userSpaceOnUse" color-interpolation-filters="sRGB">
<feFlood flood-opacity="0" result="BackgroundImageFix"/>
<feColorMatrix in="SourceAlpha" type="matrix" values="0 0 0 0 0 0 0 0 0 0 0 0 0 0 0 0 0 0 127 0" result="hardAlpha"/>
<feOffset dx="2" dy="2"/>
<feGaussianBlur stdDeviation="2.5"/>
<feComposite in2="hardAlpha" operator="out"/>
<feColorMatrix type="matrix" values="0 0 0 0 0 0 0 0 0 0 0 0 0 0 0 0 0 0 0.15 0"/>
<feBlend mode="normal" in2="BackgroundImageFix" result="effect1_dropShadow_25_25823"/>
<feBlend mode="normal" in="SourceGraphic" in2="effect1_dropShadow_25_25823" result="shape"/>
</filter>
</defs>
</svg>
