<svg width="133" height="133" viewBox="0 0 133 133" fill="none" xmlns="http://www.w3.org/2000/svg">
<g filter="url(#filter0_d_25_25838)">
<path d="M3.55957 3.24805H105.843C116.889 3.24805 125.843 12.2024 125.843 23.248V125.575H23.5596C12.5139 125.575 3.55957 116.621 3.55957 105.575V3.24805Z" fill="#5FD788"/>
</g>
<path fill-rule="evenodd" clip-rule="evenodd" d="M56.398 77.3803C47.3964 69.3332 43.7137 58.8449 48.9261 49.0483C55.1739 37.306 57.3132 54.9137 66.9072 51.796C76.5012 48.6784 89.284 56.4278 82.7458 70.2358C76.6253 83.1618 65.3995 85.4275 56.398 77.3803Z" fill="white"/>
<path d="M78.8049 62.9287H76.2547C75.9262 62.9287 75.6597 62.6395 75.6597 62.283V59.0546C75.6597 57.9355 76.4985 57.0254 77.5298 57.0254C78.561 57.0254 79.3999 57.9356 79.3999 59.0546V62.283C79.3999 62.6395 79.1333 62.9287 78.8048 62.9287H78.8049ZM76.8497 61.6374H78.2098V59.0547C78.2098 58.6478 77.9047 58.3167 77.5298 58.3167C77.1548 58.3167 76.8497 58.6478 76.8497 59.0547V61.6374Z" fill="#424B25"/>
<path d="M63.9294 81.3766H63.9291L63.8386 81.3763C60.5595 81.3512 57.4646 79.9455 55.1246 77.4185C52.784 74.8914 51.4736 71.5401 51.4345 67.9823C51.3826 63.2557 53.5469 58.9164 57.2243 56.3746C59.4533 54.8336 60.7843 52.2149 60.7843 49.3693C60.7843 49.0129 61.0508 48.7236 61.3793 48.7236H66.4797C66.8082 48.7236 67.0747 49.0129 67.0747 49.3693C67.0747 52.2208 68.3987 54.8349 70.6164 56.3618C72.6019 57.7289 74.187 59.665 75.2022 61.9624C75.252 62.0566 75.2806 62.1663 75.2806 62.2829C75.2806 62.6252 75.0352 62.9052 74.725 62.9273L74.7253 64.4045H75.555C75.8346 64.4045 76.0769 64.616 76.1364 64.9125C76.1583 65.0215 76.1798 65.1306 76.1989 65.2403C76.2305 65.4191 76.1914 65.604 76.0906 65.7496L73.8752 68.9549V75.8061C73.8752 75.951 73.8303 76.092 73.7474 76.206C71.3599 79.4917 67.7812 81.3767 63.9298 81.3767L63.9294 81.3766ZM61.9542 50.0145C61.7675 53.0508 60.2681 55.8012 57.8633 57.4632C54.5359 59.7632 52.5771 63.6897 52.6242 67.967C52.697 74.6017 57.7315 80.0377 63.8469 80.0849L63.9289 80.0853C67.3458 80.0853 70.5251 78.4457 72.6848 75.579V68.7396C72.6848 68.6 72.7264 68.4639 72.8038 68.3522L74.64 65.6957H74.1299C73.8014 65.6957 73.5349 65.4065 73.5349 65.05V62.2829C73.5349 62.074 73.626 61.8885 73.7677 61.7706C72.8527 60.0193 71.5551 58.5379 69.9783 57.4521C67.5829 55.803 66.0896 53.0569 65.9037 50.0149L61.9542 50.0145Z" fill="#424B25"/>
<path d="M79.4851 81.3767H75.5748C73.9812 81.3767 72.6846 79.9697 72.6846 78.2405V68.7394C72.6846 68.383 72.9511 68.0938 73.2796 68.0938H81.7806C82.1091 68.0938 82.3757 68.383 82.3757 68.7394V78.2405C82.3757 79.9697 81.079 81.3767 79.4854 81.3767H79.4851ZM73.8746 69.3853V78.2403C73.8746 79.2576 74.6372 80.0851 75.5747 80.0851H79.485C80.4224 80.0851 81.1851 79.2576 81.1851 78.2403V69.3853H73.8746Z" fill="#424B25"/>
<path d="M81.7801 69.3853H73.2791C73.0538 69.3853 72.8477 69.2472 72.7469 69.0285C72.6461 68.8098 72.6679 68.5479 72.803 68.3522L75.3532 64.6626C75.4655 64.5002 75.6419 64.4043 75.8292 64.4043H79.2295C79.4168 64.4043 79.5932 64.4998 79.7055 64.6626L82.2556 68.3522C82.3907 68.5479 82.4126 68.8098 82.3118 69.0285C82.211 69.2472 82.0049 69.3853 81.7796 69.3853H81.7801ZM74.4696 68.094H80.59L78.9324 65.6957H76.1272L74.4696 68.094Z" fill="#424B25"/>
<path d="M80.9307 65.6952H74.1302C73.8017 65.6952 73.5352 65.406 73.5352 65.0496V62.2824C73.5352 61.9259 73.8017 61.6367 74.1302 61.6367H80.9307C81.2592 61.6367 81.5257 61.926 81.5257 62.2824V65.0496C81.5257 65.406 81.2592 65.6952 80.9307 65.6952ZM74.7252 64.4039H80.3357V62.9281H74.7252V64.4039Z" fill="#424B25"/>
<path d="M85.1805 81.3763H46.9276C46.5991 81.3763 46.3325 81.0871 46.3325 80.7306C46.3325 80.3742 46.5991 80.085 46.9276 80.085H85.1805C85.509 80.085 85.7756 80.3742 85.7756 80.7306C85.7756 81.0871 85.509 81.3763 85.1805 81.3763Z" fill="#424B25"/>
<path d="M65.6292 50.0142H62.229C61.9005 50.0142 61.6339 49.725 61.6339 49.3685V46.5071C61.0823 46.9828 60.3959 47.247 59.6788 47.247C58.8285 47.247 58.0352 46.8846 57.4474 46.2396C57.2033 46.2963 56.9544 46.3246 56.7036 46.3246C54.7348 46.3246 53.1333 44.5869 53.1333 42.4505C53.1333 40.314 54.7347 38.5763 56.7036 38.5763C57.5394 38.5763 58.3451 38.8992 58.9793 39.4674C59.7192 38.3434 60.9208 37.6539 62.2289 37.6539C63.1431 37.6539 64.0095 37.9866 64.7078 38.5885C65.346 37.4605 66.4966 36.7314 67.7544 36.7314C69.3607 36.7314 70.7195 37.8722 71.1677 39.4634C71.7375 38.9044 72.4886 38.5763 73.2798 38.5763C75.0139 38.5763 76.425 40.1071 76.425 41.9892C76.425 43.8713 75.0139 45.4021 73.2798 45.4021C72.7175 45.4021 72.1793 45.2436 71.7066 44.9462C71.0235 46.3351 69.6712 47.2469 68.1794 47.2469C67.4875 47.2469 66.8153 47.0519 66.2243 46.6918V49.3684C66.2243 49.7248 65.9577 50.0141 65.6293 50.0141L65.6292 50.0142ZM62.824 48.7229H65.0342V45.3515C65.0342 45.083 65.1875 44.8425 65.4189 44.7476C65.6505 44.6528 65.9119 44.7233 66.0755 44.9245C66.6083 45.5798 67.3752 45.9557 68.1794 45.9557C69.4287 45.9557 70.5386 45.0451 70.8784 43.7413C70.9364 43.5192 71.0991 43.3476 71.3052 43.2909C71.5117 43.2343 71.73 43.3015 71.8781 43.4672C72.2494 43.8822 72.7473 44.1109 73.2798 44.1109C74.3579 44.1109 75.2349 43.1592 75.2349 41.9894C75.2349 40.8196 74.3579 39.8679 73.2798 39.8679C72.5272 39.8679 71.8329 40.3455 71.5107 41.0851C71.42 41.2937 71.2336 41.4337 71.0219 41.4528C70.8106 41.4716 70.6051 41.3671 70.484 41.1777C70.4217 41.0805 70.3534 40.986 70.2803 40.8967C70.1898 40.7857 70.1373 40.644 70.1315 40.4961C70.0784 39.1092 69.034 38.0231 67.7544 38.0231C66.7021 38.0231 65.7622 38.7884 65.4689 39.8844C65.407 40.1166 65.2303 40.2915 65.0117 40.338C64.7928 40.3844 64.5688 40.2942 64.4306 40.1047C63.8942 39.3681 63.0918 38.9455 62.229 38.9455C61.1045 38.9455 60.092 39.6716 59.6494 40.7949C59.5656 41.0081 59.3825 41.156 59.1703 41.1827C58.9581 41.2097 58.7489 41.1102 58.6226 40.9234C58.1751 40.2626 57.4578 39.8679 56.7036 39.8679C55.3912 39.8679 54.3235 41.0265 54.3235 42.4506C54.3235 43.8748 55.3912 45.0334 56.7036 45.0334C56.9614 45.0334 57.2164 44.9882 57.4614 44.8989C57.7028 44.811 57.9693 44.8996 58.1239 45.1193C58.4976 45.651 59.0644 45.9558 59.6789 45.9558C60.2548 45.9558 60.7991 45.6813 61.172 45.203C61.3092 45.0271 61.5223 44.9438 61.7312 44.9846C61.8981 45.0172 62.0654 45.0334 62.2291 45.0334C62.5575 45.0334 62.8241 45.3226 62.8241 45.679L62.824 48.7229Z" fill="#424B25"/>
<path d="M63.9295 77.6872C58.9142 77.6872 54.834 73.2596 54.834 67.8176C54.834 67.4611 55.1005 67.1719 55.429 67.1719C55.7575 67.1719 56.0241 67.4611 56.0241 67.8176C56.0241 72.5475 59.5707 76.396 63.9297 76.396C64.2582 76.396 64.5248 76.6853 64.5248 77.0417C64.5248 77.3981 64.2582 77.6874 63.9297 77.6874L63.9295 77.6872Z" fill="#424B25"/>
<path d="M63.9294 66.6177C62.6638 66.6177 61.6343 65.5006 61.6343 64.1272C61.6343 62.7538 62.6638 61.6367 63.9294 61.6367C65.1951 61.6367 66.2246 62.7538 66.2246 64.1272C66.2246 65.5006 65.1951 66.6177 63.9294 66.6177ZM63.9294 62.928C63.3201 62.928 62.8243 63.466 62.8243 64.1272C62.8243 64.7884 63.3201 65.3263 63.9294 65.3263C64.5388 65.3263 65.0345 64.7884 65.0345 64.1272C65.0345 63.466 64.5388 62.928 63.9294 62.928Z" fill="#424B25"/>
<path d="M67.7549 75.8419C66.2548 75.8419 65.0347 74.5179 65.0347 72.8902C65.0347 71.2624 66.2548 69.9385 67.7549 69.9385C69.2549 69.9385 70.4751 71.2624 70.4751 72.8902C70.4751 74.5179 69.2549 75.8419 67.7549 75.8419ZM67.7549 71.2298C66.9112 71.2298 66.2247 71.9746 66.2247 72.8902C66.2247 73.8057 66.9111 74.5505 67.7549 74.5505C68.5986 74.5505 69.285 73.8057 69.285 72.8902C69.285 71.9746 68.5986 71.2298 67.7549 71.2298Z" fill="#424B25"/>
<path d="M81.7803 76.764H75.8299C75.5014 76.764 75.2349 76.4748 75.2349 76.1183C75.2349 75.7619 75.5014 75.4727 75.8299 75.4727H81.7803C82.1088 75.4727 82.3753 75.7619 82.3753 76.1183C82.3753 76.4748 82.1088 76.764 81.7803 76.764Z" fill="#424B25"/>
<path d="M35.7835 94.6982V95.1045H37.0335V103.667H35.7835V104.073H40.2367C41.6533 104.073 42.8252 103.636 43.7523 102.761C44.6585 101.896 45.1117 100.776 45.1117 99.4014C45.1117 97.6305 44.4554 96.3285 43.1429 95.4951C42.3096 94.9639 41.3408 94.6982 40.2367 94.6982H35.7835ZM40.2367 95.1045C41.6846 95.1045 42.6012 95.8128 42.9867 97.2295C43.1429 97.8024 43.221 98.5003 43.221 99.3232C43.1481 102.167 42.1585 103.615 40.2523 103.667H38.7054V95.1045H40.2367ZM49.5804 103.683H48.8773V97.4014H46.2679V97.792H47.3773V102.792C47.3773 103.261 47.2106 103.542 46.8773 103.636C46.7315 103.667 46.5283 103.683 46.2679 103.683V104.073H49.971C49.971 103.844 49.9033 103.719 49.7679 103.698C49.7158 103.688 49.6533 103.683 49.5804 103.683ZM49.0492 95.2139C49.0492 94.818 48.8721 94.5264 48.5179 94.3389C48.3721 94.266 48.221 94.2295 48.0648 94.2295C47.669 94.2295 47.3825 94.4066 47.2054 94.7607C47.1325 94.9066 47.096 95.0576 47.096 95.2139C47.096 95.6305 47.2783 95.9222 47.6429 96.0889C47.7783 96.1514 47.919 96.1826 48.0648 96.1826C48.4815 96.1826 48.7783 96.0055 48.9554 95.6514C49.0179 95.516 49.0492 95.3701 49.0492 95.2139ZM54.596 103.683H53.4867V97.8076H55.2679V97.4014H53.4867V97.3076C53.4867 95.6201 53.6898 94.6357 54.096 94.3545C54.221 94.2712 54.3669 94.2295 54.5335 94.2295C54.8252 94.2295 55.07 94.4222 55.2679 94.8076C55.4658 95.2139 55.596 95.4482 55.6585 95.5107C55.794 95.6357 55.9398 95.6982 56.096 95.6982C56.471 95.6982 56.7054 95.5472 56.7992 95.2451C56.82 95.1722 56.8304 95.1045 56.8304 95.042C56.8304 94.6253 56.5648 94.2972 56.0335 94.0576C55.6898 93.9118 55.294 93.8389 54.846 93.8389C53.7627 93.8389 52.971 94.2607 52.471 95.1045C52.1481 95.6566 51.9867 96.3441 51.9867 97.167V97.4014H50.8148V97.8076H51.9867V102.792C51.9867 103.261 51.8044 103.542 51.4398 103.636C51.2835 103.667 51.0752 103.683 50.8148 103.683V104.073H54.971C54.971 103.854 54.9033 103.729 54.7679 103.698C54.7158 103.688 54.6585 103.683 54.596 103.683ZM59.6117 103.683H58.5023V97.8076H60.2835V97.4014H58.5023V97.3076C58.5023 95.6201 58.7054 94.6357 59.1117 94.3545C59.2367 94.2712 59.3825 94.2295 59.5492 94.2295C59.8408 94.2295 60.0856 94.4222 60.2835 94.8076C60.4815 95.2139 60.6117 95.4482 60.6742 95.5107C60.8096 95.6357 60.9554 95.6982 61.1117 95.6982C61.4867 95.6982 61.721 95.5472 61.8148 95.2451C61.8356 95.1722 61.846 95.1045 61.846 95.042C61.846 94.6253 61.5804 94.2972 61.0492 94.0576C60.7054 93.9118 60.3096 93.8389 59.8617 93.8389C58.7783 93.8389 57.9867 94.2607 57.4867 95.1045C57.1637 95.6566 57.0023 96.3441 57.0023 97.167V97.4014H55.8304V97.8076H57.0023V102.792C57.0023 103.261 56.82 103.542 56.4554 103.636C56.2992 103.667 56.0908 103.683 55.8304 103.683V104.073H59.9867C59.9867 103.854 59.919 103.729 59.7835 103.698C59.7315 103.688 59.6742 103.683 59.6117 103.683ZM68.4554 103.683H67.7835V97.4014H65.2054V97.792H66.2679V101.401C66.2367 102.287 65.9242 102.912 65.3304 103.276C65.0908 103.422 64.846 103.495 64.596 103.495C63.846 103.495 63.4085 103.094 63.2835 102.292C63.2627 102.146 63.2523 102 63.2523 101.854V97.4014H60.6742V97.792H61.7523V101.604C61.7627 103.344 62.5075 104.219 63.9867 104.229C64.7992 104.229 65.4502 103.896 65.9398 103.229C66.0856 103.032 66.2054 102.823 66.2992 102.604L66.4085 104.073H68.846C68.846 103.844 68.7783 103.719 68.6429 103.698C68.5908 103.688 68.5283 103.683 68.4554 103.683ZM72.221 103.808C72.9294 103.808 73.3825 103.584 73.5804 103.136C73.6429 103 73.6742 102.86 73.6742 102.714C73.6742 102.245 73.346 101.844 72.6898 101.511C72.5544 101.438 72.3304 101.334 72.0179 101.198C71.195 100.844 70.6481 100.516 70.3773 100.214C70.0856 99.8805 69.9398 99.4899 69.9398 99.042C69.9398 98.2607 70.3669 97.7191 71.221 97.417C71.6065 97.2816 72.0283 97.2139 72.4867 97.2139C73.2367 97.2139 73.8512 97.3597 74.3304 97.6514C74.3304 97.3493 74.4085 97.1774 74.5648 97.1357C74.6169 97.1253 74.6742 97.1201 74.7367 97.1201V99.0732H74.2992C74.2575 98.1149 73.7315 97.6305 72.721 97.6201C71.9919 97.6201 71.5387 97.8441 71.3617 98.292C71.32 98.4066 71.2992 98.5264 71.2992 98.6514C71.2992 99.0993 71.6169 99.4847 72.2523 99.8076C72.3877 99.8701 72.6065 99.9639 72.9085 100.089C73.7419 100.443 74.294 100.771 74.5648 101.073C74.8773 101.427 75.0335 101.839 75.0335 102.308C75.0335 103.162 74.5856 103.74 73.6898 104.042C73.3252 104.167 72.919 104.229 72.471 104.229C71.6481 104.219 70.945 104.042 70.3617 103.698C70.3617 103.969 70.294 104.125 70.1585 104.167C70.096 104.177 70.0231 104.183 69.9398 104.183V101.808H70.4242C70.445 103.131 71.044 103.797 72.221 103.808ZM79.5179 97.6045C80.1846 97.6045 80.6065 97.943 80.7835 98.6201C80.8356 98.818 80.8617 99.0212 80.8617 99.2295C80.8617 99.7399 80.6481 100.052 80.221 100.167C79.9815 100.229 79.6429 100.25 79.2054 100.229L77.8148 100.198C77.8565 98.8649 78.2419 98.0368 78.971 97.7139C79.1377 97.641 79.32 97.6045 79.5179 97.6045ZM82.3148 102.526L81.9398 102.401C81.596 103.12 81.0648 103.563 80.346 103.729C80.1794 103.771 80.0127 103.792 79.846 103.792C78.544 103.792 77.8669 102.75 77.8148 100.667C77.8148 100.657 77.8148 100.646 77.8148 100.636L79.5179 100.667C80.945 100.698 81.8356 100.526 82.1898 100.151C82.3565 99.9535 82.4398 99.7035 82.4398 99.4014C82.4398 98.6201 82.0492 98.0264 81.2679 97.6201C80.7471 97.3493 80.1585 97.2139 79.5023 97.2139C78.2627 97.2139 77.3408 97.6878 76.7367 98.6357C76.3512 99.2399 76.1585 99.943 76.1585 100.745C76.1585 102.131 76.6637 103.125 77.6742 103.729C78.2262 104.063 78.8512 104.229 79.5492 104.229C80.7262 104.229 81.5752 103.808 82.096 102.964C82.1794 102.818 82.2523 102.672 82.3148 102.526ZM87.0492 103.683H85.9085V100.667C85.9085 99.5837 86.1846 98.7972 86.7367 98.3076C86.9033 98.1618 87.0544 98.0837 87.1898 98.0732C87.3356 98.0732 87.4815 98.1982 87.6273 98.4482C87.8044 98.7607 87.9815 98.9482 88.1585 99.0107C88.2315 99.0316 88.3096 99.042 88.3929 99.042C88.7575 99.042 89.0023 98.8701 89.1273 98.5264C89.1585 98.4326 89.1742 98.3389 89.1742 98.2451C89.1742 97.7555 88.9294 97.4482 88.4398 97.3232C88.3252 97.3024 88.2106 97.292 88.096 97.292C87.471 97.292 86.9085 97.5524 86.4085 98.0732C86.1794 98.3232 86.0023 98.6045 85.8773 98.917L85.7992 97.4014H83.346V97.792H84.4085V102.792C84.4085 103.261 84.2575 103.537 83.9554 103.62C83.82 103.662 83.6169 103.683 83.346 103.683V104.073H87.4398C87.4398 103.844 87.3721 103.719 87.2367 103.698C87.1846 103.688 87.1221 103.683 87.0492 103.683ZM92.2523 103.808C92.9606 103.808 93.4137 103.584 93.6117 103.136C93.6742 103 93.7054 102.86 93.7054 102.714C93.7054 102.245 93.3773 101.844 92.721 101.511C92.5856 101.438 92.3617 101.334 92.0492 101.198C91.2262 100.844 90.6794 100.516 90.4085 100.214C90.1169 99.8805 89.971 99.4899 89.971 99.042C89.971 98.2607 90.3981 97.7191 91.2523 97.417C91.6377 97.2816 92.0596 97.2139 92.5179 97.2139C93.2679 97.2139 93.8825 97.3597 94.3617 97.6514C94.3617 97.3493 94.4398 97.1774 94.596 97.1357C94.6481 97.1253 94.7054 97.1201 94.7679 97.1201V99.0732H94.3304C94.2887 98.1149 93.7627 97.6305 92.7523 97.6201C92.0231 97.6201 91.57 97.8441 91.3929 98.292C91.3512 98.4066 91.3304 98.5264 91.3304 98.6514C91.3304 99.0993 91.6481 99.4847 92.2835 99.8076C92.419 99.8701 92.6377 99.9639 92.9398 100.089C93.7731 100.443 94.3252 100.771 94.596 101.073C94.9085 101.427 95.0648 101.839 95.0648 102.308C95.0648 103.162 94.6169 103.74 93.721 104.042C93.3565 104.167 92.9502 104.229 92.5023 104.229C91.6794 104.219 90.9762 104.042 90.3929 103.698C90.3929 103.969 90.3252 104.125 90.1898 104.167C90.1273 104.177 90.0544 104.183 89.971 104.183V101.808H90.4554C90.4762 103.131 91.0752 103.797 92.2523 103.808Z" fill="white"/>
<defs>
<filter id="filter0_d_25_25838" x="0.55957" y="0.248047" width="132.284" height="132.327" filterUnits="userSpaceOnUse" color-interpolation-filters="sRGB">
<feFlood flood-opacity="0" result="BackgroundImageFix"/>
<feColorMatrix in="SourceAlpha" type="matrix" values="0 0 0 0 0 0 0 0 0 0 0 0 0 0 0 0 0 0 127 0" result="hardAlpha"/>
<feOffset dx="2" dy="2"/>
<feGaussianBlur stdDeviation="2.5"/>
<feComposite in2="hardAlpha" operator="out"/>
<feColorMatrix type="matrix" values="0 0 0 0 0 0 0 0 0 0 0 0 0 0 0 0 0 0 0.15 0"/>
<feBlend mode="normal" in2="BackgroundImageFix" result="effect1_dropShadow_25_25838"/>
<feBlend mode="normal" in="SourceGraphic" in2="effect1_dropShadow_25_25838" result="shape"/>
</filter>
</defs>
</svg>
