<svg width="133" height="133" viewBox="0 0 133 133" fill="none" xmlns="http://www.w3.org/2000/svg">
<g filter="url(#filter0_d_25_25862)">
<path d="M3.59375 3.51953H105.877C116.923 3.51953 125.877 12.4738 125.877 23.5195V125.847H23.5937C12.548 125.847 3.59375 116.893 3.59375 105.847V3.51953Z" fill="#F9FAFB"/>
</g>
<path d="M33.9068 94.4385L33.8521 91.9092H27.3307V92.2646H28.4244V99.7568H27.3307V100.112H33.8521L33.9068 97.583H33.5924L33.3463 98.3486C33.1002 99.1598 32.6991 99.6201 32.1432 99.7295C32.0429 99.7477 31.9381 99.7568 31.8287 99.7568H29.8873V96.0791H32.6353V95.6826H29.8873V92.2646H31.8287C32.5488 92.2646 33.0455 92.7021 33.3189 93.5771C33.3281 93.6136 33.3372 93.6455 33.3463 93.6729L33.5924 94.4385H33.9068ZM37.1881 99.8799C37.8079 99.8799 38.2044 99.6839 38.3775 99.292C38.4322 99.1735 38.4596 99.0505 38.4596 98.9229C38.4596 98.5127 38.1725 98.1618 37.5982 97.8701C37.4797 97.8063 37.2838 97.7152 37.0103 97.5967C36.2903 97.2868 35.8118 96.9997 35.5748 96.7354C35.3196 96.4437 35.192 96.1019 35.192 95.71C35.192 95.0264 35.5657 94.5524 36.3131 94.2881C36.6503 94.1696 37.0195 94.1104 37.4205 94.1104C38.0768 94.1104 38.6145 94.238 39.0338 94.4932C39.0338 94.2288 39.1021 94.0785 39.2389 94.042C39.2844 94.0329 39.3346 94.0283 39.3893 94.0283V95.7373H39.0064C38.97 94.8988 38.5097 94.4749 37.6256 94.4658C36.9876 94.4658 36.5911 94.6618 36.4361 95.0537C36.3997 95.154 36.3814 95.2588 36.3814 95.3682C36.3814 95.7601 36.6594 96.0973 37.2154 96.3799C37.3339 96.4346 37.5253 96.5166 37.7896 96.626C38.5188 96.9359 39.0019 97.223 39.2389 97.4873C39.5123 97.7972 39.649 98.1572 39.649 98.5674C39.649 99.3148 39.2571 99.8206 38.4732 100.085C38.1542 100.194 37.7988 100.249 37.4068 100.249C36.6868 100.24 36.0715 100.085 35.5611 99.7842C35.5611 100.021 35.5019 100.158 35.3834 100.194C35.3287 100.203 35.2649 100.208 35.192 100.208V98.1299H35.6158C35.634 99.2874 36.1581 99.8708 37.1881 99.8799ZM42.7662 99.8799C43.386 99.8799 43.7825 99.6839 43.9557 99.292C44.0103 99.1735 44.0377 99.0505 44.0377 98.9229C44.0377 98.5127 43.7506 98.1618 43.1764 97.8701C43.0579 97.8063 42.8619 97.7152 42.5885 97.5967C41.8684 97.2868 41.3899 96.9997 41.1529 96.7354C40.8977 96.4437 40.7701 96.1019 40.7701 95.71C40.7701 95.0264 41.1438 94.5524 41.8912 94.2881C42.2284 94.1696 42.5976 94.1104 42.9986 94.1104C43.6549 94.1104 44.1926 94.238 44.6119 94.4932C44.6119 94.2288 44.6803 94.0785 44.817 94.042C44.8626 94.0329 44.9127 94.0283 44.9674 94.0283V95.7373H44.5846C44.5481 94.8988 44.0878 94.4749 43.2037 94.4658C42.5657 94.4658 42.1692 94.6618 42.0143 95.0537C41.9778 95.154 41.9596 95.2588 41.9596 95.3682C41.9596 95.7601 42.2376 96.0973 42.7935 96.3799C42.912 96.4346 43.1034 96.5166 43.3678 96.626C44.0969 96.9359 44.58 97.223 44.817 97.4873C45.0904 97.7972 45.2271 98.1572 45.2271 98.5674C45.2271 99.3148 44.8352 99.8206 44.0514 100.085C43.7324 100.194 43.3769 100.249 42.985 100.249C42.2649 100.24 41.6497 100.085 41.1393 99.7842C41.1393 100.021 41.08 100.158 40.9615 100.194C40.9068 100.203 40.843 100.208 40.7701 100.208V98.1299H41.1939C41.2122 99.2874 41.7363 99.8708 42.7662 99.8799ZM49.151 94.4521C49.7343 94.4521 50.1034 94.7484 50.2584 95.3408C50.304 95.514 50.3268 95.6917 50.3268 95.874C50.3268 96.3206 50.1399 96.5941 49.7662 96.6943C49.5566 96.749 49.2603 96.7673 48.8775 96.749L47.6607 96.7217C47.6972 95.555 48.0344 94.8304 48.6725 94.5479C48.8183 94.484 48.9778 94.4521 49.151 94.4521ZM51.5982 98.7588L51.2701 98.6494C50.9693 99.2783 50.5045 99.6657 49.8756 99.8115C49.7297 99.848 49.5839 99.8662 49.4381 99.8662C48.2988 99.8662 47.7063 98.9548 47.6607 97.1318C47.6607 97.1227 47.6607 97.1136 47.6607 97.1045L49.151 97.1318C50.3997 97.1592 51.179 97.0088 51.4889 96.6807C51.6347 96.5075 51.7076 96.2887 51.7076 96.0244C51.7076 95.3408 51.3658 94.8213 50.6822 94.4658C50.2265 94.2288 49.7115 94.1104 49.1373 94.1104C48.0527 94.1104 47.246 94.5251 46.7174 95.3545C46.3801 95.8831 46.2115 96.4984 46.2115 97.2002C46.2115 98.4124 46.6536 99.2829 47.5377 99.8115C48.0208 100.103 48.5676 100.249 49.1783 100.249C50.2083 100.249 50.9511 99.8799 51.4068 99.1416C51.4797 99.014 51.5435 98.8864 51.5982 98.7588ZM55.235 99.7705H54.7291L54.7428 96.4756C54.8066 95.7373 55.0982 95.2178 55.6178 94.917C55.8092 94.8076 56.0051 94.7529 56.2057 94.7529C56.7525 94.7529 57.1034 95.0264 57.2584 95.5732C57.304 95.7555 57.3268 95.9469 57.3268 96.1475V98.9912C57.3268 99.3923 57.2174 99.6338 56.9986 99.7158C56.871 99.7523 56.6933 99.7705 56.4654 99.7705V100.112H59.5826C59.5826 99.9118 59.5234 99.8024 59.4049 99.7842C59.3593 99.7751 59.3046 99.7705 59.2408 99.7705H58.6529V96.3252C58.6529 95.3499 58.3157 94.6846 57.6412 94.3291C57.3769 94.1833 57.0852 94.1104 56.7662 94.1104C56.0917 94.1104 55.5266 94.3792 55.0709 94.917C54.9251 95.0993 54.8066 95.2952 54.7154 95.5049L54.6471 94.2744H52.4869V94.6162H53.4166V98.9912C53.4166 99.4014 53.2844 99.6429 53.0201 99.7158C52.8925 99.7523 52.7148 99.7705 52.4869 99.7705V100.112H55.5768C55.5768 99.9118 55.5175 99.8024 55.399 99.7842C55.3534 99.7751 55.2988 99.7705 55.235 99.7705ZM60.1158 94.6436H61.0728V98.3213C61.0728 99.5153 61.5696 100.158 62.5631 100.249C62.6451 100.258 62.7226 100.263 62.7955 100.263C63.5702 100.263 64.0852 99.8799 64.3404 99.1143C64.386 98.9775 64.4225 98.8363 64.4498 98.6904L64.0807 98.6221C63.8801 99.4333 63.552 99.8434 63.0963 99.8525C62.6314 99.8343 62.3945 99.4834 62.3853 98.7998V94.6436H64.3678V94.3018H62.3853V92.7158L61.0728 93.0029V94.3018H60.1158V94.6436ZM67.7994 99.7705H67.1842V94.2744H64.901V94.6162H65.8717V98.9912C65.8717 99.4014 65.7258 99.6475 65.4342 99.7295C65.3066 99.7568 65.1288 99.7705 64.901 99.7705V100.112H68.1412C68.1412 99.9118 68.082 99.8024 67.9635 99.7842C67.9179 99.7751 67.8632 99.7705 67.7994 99.7705ZM67.3346 92.3604C67.3346 92.014 67.1796 91.7588 66.8697 91.5947C66.7421 91.5309 66.61 91.499 66.4732 91.499C66.1269 91.499 65.8762 91.654 65.7213 91.9639C65.6575 92.0915 65.6256 92.2236 65.6256 92.3604C65.6256 92.7249 65.7851 92.9801 66.1041 93.126C66.2226 93.1807 66.3456 93.208 66.4732 93.208C66.8378 93.208 67.0976 93.0531 67.2525 92.7432C67.3072 92.6247 67.3346 92.4971 67.3346 92.3604ZM73.815 100.249C74.4531 100.249 74.845 99.9619 74.9908 99.3877C75.0364 99.2236 75.0637 99.0368 75.0728 98.8271L74.7174 98.8135C74.6536 99.4606 74.4804 99.7887 74.1978 99.7979C73.9791 99.7796 73.8652 99.5472 73.856 99.1006V96.2295C73.8378 94.8258 73.0676 94.1195 71.5455 94.1104C70.4426 94.1104 69.7226 94.3564 69.3853 94.8486C69.2851 95.0036 69.235 95.1585 69.235 95.3135C69.235 95.6051 69.3717 95.792 69.6451 95.874C69.718 95.8923 69.7909 95.9014 69.8639 95.9014C70.1464 95.9014 70.3424 95.751 70.4518 95.4502C70.47 95.4046 70.4928 95.3363 70.5201 95.2451C70.6386 94.8805 70.7844 94.6481 70.9576 94.5479C71.0852 94.484 71.2402 94.4521 71.4225 94.4521C72.1607 94.4704 72.5344 94.9489 72.5435 95.8877V96.7627C70.356 96.79 69.1484 97.2868 68.9205 98.2529C68.8932 98.3805 68.8795 98.5127 68.8795 98.6494C68.8795 99.3786 69.1939 99.8662 69.8228 100.112C70.0598 100.203 70.3196 100.249 70.6021 100.249C71.2949 100.249 71.8508 100.012 72.2701 99.5381C72.4068 99.374 72.5116 99.2008 72.5846 99.0186C72.7213 99.8298 73.1314 100.24 73.815 100.249ZM71.1627 99.6885C70.6614 99.6885 70.3652 99.3923 70.274 98.7998C70.2558 98.6904 70.2467 98.5719 70.2467 98.4443C70.2467 97.8245 70.5748 97.4326 71.231 97.2686C71.5683 97.1865 72.0058 97.141 72.5435 97.1318V98.3213C72.3886 98.9593 72.0696 99.3831 71.5865 99.5928C71.4407 99.6566 71.2994 99.6885 71.1627 99.6885ZM78.5728 99.7705H77.8482V91.2256H75.4967V91.5674H76.5357V98.9775C76.5357 99.3786 76.4081 99.6201 76.1529 99.7021C76.0071 99.7477 75.7883 99.7705 75.4967 99.7705V100.112H78.901C78.901 99.9209 78.8417 99.8115 78.7232 99.7842C78.6777 99.7751 78.6275 99.7705 78.5728 99.7705ZM83.8228 97.1729C83.914 95.432 84.4426 94.5251 85.4088 94.4521C86.2747 94.4521 86.7851 95.0173 86.94 96.1475C86.9765 96.4391 86.9947 96.7627 86.9947 97.1182C86.9765 98.9593 86.4524 99.889 85.4225 99.9072C84.511 99.9072 83.9915 99.2692 83.8639 97.9932C83.8365 97.7471 83.8228 97.4736 83.8228 97.1729ZM85.4498 94.1104C84.4745 94.1104 83.6907 94.443 83.0982 95.1084C82.6152 95.6553 82.3736 96.3252 82.3736 97.1182C82.3736 98.221 82.7656 99.0641 83.5494 99.6475C84.0781 100.049 84.6887 100.249 85.3814 100.249C86.3294 100.249 87.0995 99.9118 87.692 99.2373C88.1933 98.6631 88.4439 97.9658 88.4439 97.1455C88.4439 96.0426 88.0429 95.2087 87.2408 94.6436C86.7213 94.2881 86.1243 94.1104 85.4498 94.1104ZM92.2174 99.7705H91.6021V94.2744H89.3189V94.6162H90.2896V98.9912C90.2896 99.4014 90.1438 99.6475 89.8521 99.7295C89.7245 99.7568 89.5468 99.7705 89.3189 99.7705V100.112H92.5592C92.5592 99.9118 92.4999 99.8024 92.3814 99.7842C92.3359 99.7751 92.2812 99.7705 92.2174 99.7705ZM91.7525 92.3604C91.7525 92.014 91.5976 91.7588 91.2877 91.5947C91.1601 91.5309 91.0279 91.499 90.8912 91.499C90.5449 91.499 90.2942 91.654 90.1393 91.9639C90.0754 92.0915 90.0435 92.2236 90.0435 92.3604C90.0435 92.7249 90.2031 92.9801 90.5221 93.126C90.6406 93.1807 90.7636 93.208 90.8912 93.208C91.2558 93.208 91.5156 93.0531 91.6705 92.7432C91.7252 92.6247 91.7525 92.4971 91.7525 92.3604ZM96.3326 99.7705H95.608V91.2256H93.2564V91.5674H94.2955V98.9775C94.2955 99.3786 94.1679 99.6201 93.9127 99.7021C93.7669 99.7477 93.5481 99.7705 93.2564 99.7705V100.112H96.6607C96.6607 99.9209 96.6015 99.8115 96.483 99.7842C96.4374 99.7751 96.3873 99.7705 96.3326 99.7705ZM99.6002 99.8799C100.22 99.8799 100.616 99.6839 100.79 99.292C100.844 99.1735 100.872 99.0505 100.872 98.9229C100.872 98.5127 100.585 98.1618 100.01 97.8701C99.8919 97.8063 99.6959 97.7152 99.4225 97.5967C98.7024 97.2868 98.2239 96.9997 97.9869 96.7354C97.7317 96.4437 97.6041 96.1019 97.6041 95.71C97.6041 95.0264 97.9778 94.5524 98.7252 94.2881C99.0624 94.1696 99.4316 94.1104 99.8326 94.1104C100.489 94.1104 101.027 94.238 101.446 94.4932C101.446 94.2288 101.514 94.0785 101.651 94.042C101.697 94.0329 101.747 94.0283 101.801 94.0283V95.7373H101.419C101.382 94.8988 100.922 94.4749 100.038 94.4658C99.3997 94.4658 99.0032 94.6618 98.8482 95.0537C98.8118 95.154 98.7935 95.2588 98.7935 95.3682C98.7935 95.7601 99.0715 96.0973 99.6275 96.3799C99.746 96.4346 99.9374 96.5166 100.202 96.626C100.931 96.9359 101.414 97.223 101.651 97.4873C101.924 97.7972 102.061 98.1572 102.061 98.5674C102.061 99.3148 101.669 99.8206 100.885 100.085C100.566 100.194 100.211 100.249 99.8189 100.249C99.0989 100.24 98.4837 100.085 97.9732 99.7842C97.9732 100.021 97.914 100.158 97.7955 100.194C97.7408 100.203 97.677 100.208 97.6041 100.208V98.1299H98.0279C98.0462 99.2874 98.5702 99.8708 99.6002 99.8799Z" fill="#5FD788"/>
<path fill-rule="evenodd" clip-rule="evenodd" d="M60.8923 70.9438C50.2781 65.6989 44.2192 56.6023 46.9173 45.6756C50.1514 32.5788 56.4177 48.9857 64.9411 43.2798C73.4645 37.5739 87.6601 41.4693 84.6383 56.643C81.8095 70.8475 71.5066 76.1887 60.8923 70.9438Z" fill="#5FD788"/>
<path d="M57.9484 56.2768H71.7099V63.7431H73.0861V51.797C73.0851 51.0051 72.7949 50.2461 72.2791 49.6862C71.763 49.1265 71.0636 48.8115 70.3338 48.8105H69.6457V47.3172H70.3338C70.5162 47.3172 70.6913 47.2386 70.8203 47.0986C70.9493 46.9586 71.0218 46.7686 71.0218 46.5706V42.0908C71.0218 41.8928 70.9493 41.7028 70.8203 41.5629C70.6913 41.4229 70.5162 41.3442 70.3338 41.3442H67.5815V36.8644C67.5815 35.7975 67.0568 34.8115 66.2053 34.2779C65.3538 33.7446 64.3045 33.7446 63.453 34.2779C62.6015 34.8116 62.0769 35.7975 62.0769 36.8644V41.3442H59.3246C58.9446 41.3442 58.6365 41.6785 58.6365 42.0908V46.5706C58.6365 46.7686 58.709 46.9586 58.838 47.0986C58.967 47.2386 59.1421 47.3172 59.3246 47.3172H60.0126V48.8105H59.3246C58.5947 48.8115 57.8953 49.1265 57.3792 49.6862C56.8635 50.2461 56.5732 51.0051 56.5723 51.797V70.4628H57.9484V56.2768ZM63.453 36.8644C63.453 36.3308 63.7153 35.8378 64.1411 35.5712C64.5668 35.3045 65.0915 35.3045 65.5172 35.5712C65.943 35.8378 66.2053 36.3308 66.2053 36.8644V41.3442H63.453V36.8644ZM60.0126 42.8375H69.6457V45.824H60.0126V42.8375ZM61.3888 47.3172H68.2695V48.8105H61.3888V47.3172ZM59.3246 50.3038H70.3338C70.6987 50.3041 71.0482 50.4618 71.3063 50.7418C71.5643 51.0217 71.7096 51.4011 71.7099 51.797V54.7835H57.9484V51.797C57.9487 51.401 58.094 51.0217 58.352 50.7418C58.6101 50.4618 58.9597 50.3041 59.3246 50.3038Z" fill="#424B25"/>
<path d="M83.7849 69.6506C83.655 68.8713 83.2455 68.18 82.6463 67.7281C82.0473 67.2764 81.3073 67.1007 80.5888 67.2401L76.5258 68.0334L76.0386 65.0942H76.0383C76.006 64.8992 75.9038 64.7262 75.7539 64.6132C75.604 64.5002 75.419 64.4562 75.2393 64.4912L71.176 65.2845C70.9966 65.3195 70.8369 65.4309 70.7327 65.5935C70.6286 65.7558 70.5884 65.9568 70.6206 66.1518L70.7423 66.8865L68.7106 67.2831H68.7109C68.3368 67.3561 68.0883 67.7444 68.1555 68.15L68.4031 69.6433L50.2057 73.8797C49.5207 74.0391 48.9533 74.5567 48.6907 75.2616C48.4284 75.9666 48.5055 76.7666 48.8962 77.3975C49.2869 78.0284 49.9406 78.4078 50.6412 78.4105C50.7454 78.4105 50.8495 78.4021 50.9527 78.3858L69.3703 75.4739L69.6179 76.9679H69.6176C69.6501 77.1625 69.7524 77.3355 69.9023 77.4485C70.0522 77.5615 70.2371 77.6055 70.4168 77.5705L72.4485 77.1739L72.5701 77.9085C72.6024 78.1035 72.7047 78.2765 72.8546 78.3895C73.0045 78.5025 73.1897 78.5465 73.3694 78.5112L77.4324 77.7179C77.8066 77.6449 78.0551 77.2569 77.9878 76.8509L77.5006 73.9117L81.564 73.1184C82.2822 72.9781 82.9198 72.5338 83.3364 71.8835C83.7529 71.2332 83.9145 70.4299 83.7852 69.6502L83.7849 69.6506ZM50.7542 76.9083C50.362 76.9703 49.9949 76.684 49.9248 76.2607C49.8545 75.8373 50.1064 75.43 50.494 75.34L68.6474 71.1143L69.1266 74.0038L50.7542 76.9083ZM70.8507 75.9686L69.6325 68.6203L70.9868 68.356L72.2051 75.7043L70.8507 75.9686ZM73.8033 76.9096L72.0976 66.6223L74.8069 66.0936L76.5123 76.3809L73.8033 76.9096ZM82.2065 71.0315C81.9991 71.3575 81.68 71.5798 81.3205 71.6488L77.2572 72.4421L76.77 69.5029L80.833 68.7096H80.8333C81.1924 68.6396 81.5626 68.7273 81.8621 68.9533C82.1616 69.1793 82.3665 69.5253 82.431 69.9152C82.4955 70.3049 82.4147 70.7065 82.2064 71.0315L82.2065 71.0315Z" fill="#424B25"/>
<path d="M64.829 58.5166C64.6251 58.5166 64.4315 58.6149 64.301 58.7846C63.8144 59.4169 61.3887 62.662 61.3887 64.4896C61.3887 65.8232 62.0445 67.0558 63.1089 67.7225C64.1732 68.3895 65.4849 68.3895 66.5492 67.7225C67.6136 67.0559 68.2694 65.8232 68.2694 64.4896C68.2694 62.662 65.8439 59.4169 65.3571 58.7846C65.2265 58.6149 65.033 58.5166 64.8291 58.5166H64.829ZM66.8933 64.4897C66.8933 65.2899 66.4998 66.0292 65.8611 66.4295C65.2225 66.8295 64.4355 66.8295 63.7969 66.4295C63.1583 66.0292 62.7648 65.29 62.7648 64.4897C62.7648 63.6884 63.8448 61.8544 64.829 60.4601C65.8132 61.8544 66.8933 63.6883 66.8933 64.4897Z" fill="#424B25"/>
<path d="M68.9575 57.7705H70.3337V59.2638H68.9575V57.7705Z" fill="#424B25"/>
<defs>
<filter id="filter0_d_25_25862" x="0.59375" y="0.519531" width="132.284" height="132.327" filterUnits="userSpaceOnUse" color-interpolation-filters="sRGB">
<feFlood flood-opacity="0" result="BackgroundImageFix"/>
<feColorMatrix in="SourceAlpha" type="matrix" values="0 0 0 0 0 0 0 0 0 0 0 0 0 0 0 0 0 0 127 0" result="hardAlpha"/>
<feOffset dx="2" dy="2"/>
<feGaussianBlur stdDeviation="2.5"/>
<feComposite in2="hardAlpha" operator="out"/>
<feColorMatrix type="matrix" values="0 0 0 0 0 0 0 0 0 0 0 0 0 0 0 0 0 0 0.15 0"/>
<feBlend mode="normal" in2="BackgroundImageFix" result="effect1_dropShadow_25_25862"/>
<feBlend mode="normal" in="SourceGraphic" in2="effect1_dropShadow_25_25862" result="shape"/>
</filter>
</defs>
</svg>
