<svg width="24" height="24" viewBox="0 0 24 24" fill="none" xmlns="http://www.w3.org/2000/svg">
<g clip-path="url(#clip0_25_10087)">
<path fill-rule="evenodd" clip-rule="evenodd" d="M17.262 10.0586L12.4513 18.8406C14.3523 22.2083 15.9036 23.3907 18.9512 23.2704C21.9358 23.1526 25.3719 19.0926 23.4369 15.6184L18.619 7.07576C18.4467 7.65073 17.4396 9.68895 17.2619 10.0586L17.262 10.0586ZM10.1434 20.6547C4.8786 27.3603 -2.71675 19.9595 0.977333 14.1985C0.977333 14.1985 4.90991 7.30676 6.43925 4.62181C7.62519 2.53971 8.95382 1.22946 10.6813 0.809464C12.7879 0.297307 15.2547 1.41106 16.5697 3.44229C17.4837 4.85384 18.2925 6.14585 16.8671 8.58626C16.6977 8.87613 10.4768 20.2301 10.1434 20.6547V20.6547ZM10.5191 8.25185C9.08019 7.42235 9.08019 5.33731 10.5191 4.50781C11.9579 3.67831 13.7662 4.72081 13.7662 6.37981C13.7662 8.03881 11.9579 9.08135 10.5191 8.25185Z" fill="#5FD788"/>
</g>
<defs>
<clipPath id="clip0_25_10087">
<rect width="24" height="24" fill="white"/>
</clipPath>
</defs>
</svg>
