<svg width="133" height="133" viewBox="0 0 133 133" fill="none" xmlns="http://www.w3.org/2000/svg">
<g filter="url(#filter0_d_25_25854)">
<path d="M3.55957 3.38379H105.843C116.889 3.38379 125.843 12.3381 125.843 23.3838V125.711H23.5596C12.5139 125.711 3.55957 116.757 3.55957 105.711V3.38379Z" fill="#F9FAFB"/>
</g>
<path fill-rule="evenodd" clip-rule="evenodd" d="M57.2378 72.605C48.2363 64.5578 44.5535 54.0695 49.766 44.2729C56.0137 32.5306 58.1531 50.1383 67.747 47.0206C77.341 43.903 90.1238 51.6524 83.5857 65.4604C77.4652 78.3864 66.2394 80.6521 57.2378 72.605Z" fill="#5FD788"/>
<path d="M83.4429 58.6823H81.8294V56.9315H83.4429V55.1808H81.8294V52.5546C81.8294 52.3225 81.7444 52.0997 81.5932 51.9356C81.4419 51.7714 81.2366 51.6792 81.0227 51.6792H79.4092V49.053C79.4081 47.8853 79.0999 46.7422 78.5207 45.7582C77.9416 44.7741 77.1158 43.9894 76.1402 43.4969L76.2183 43.2703H76.2187C77.2707 40.2259 77.2372 36.8651 76.1247 33.8462C76.0314 33.5933 75.8351 33.4018 75.5935 33.3284C75.3518 33.2549 75.0921 33.3077 74.8915 33.471L72.9554 35.0467C71.5681 36.1757 70.0224 37.0546 68.3772 37.6499C66.732 38.2455 65.0091 38.5487 63.2746 38.5483C61.1655 38.5479 59.1253 39.3631 57.5201 40.8474C55.9145 42.3316 54.8492 44.388 54.5146 46.6476C53.4568 46.9661 52.5072 47.611 51.7811 48.5044C51.0554 49.3977 50.5844 50.5006 50.4255 51.6792H48.7533C48.3078 51.6792 47.9466 52.0712 47.9466 52.5546V55.1808H46.3331V56.9315H47.9466V58.6823H46.3331C45.8876 58.6823 45.5264 59.0743 45.5264 59.5577V74.4393C45.5274 75.3679 45.8678 76.2578 46.4725 76.9143C47.0776 77.5704 47.8976 77.9397 48.7533 77.9409H81.0227C81.8784 77.9397 82.6985 77.5704 83.3035 76.9143C83.9082 76.2577 84.2486 75.3679 84.2497 74.4393V59.5577C84.2497 59.3256 84.1647 59.1028 84.0134 58.9387C83.8622 58.7745 83.6569 58.6823 83.4429 58.6823L83.4429 58.6823ZM56.0139 48.1776H66.5015V46.4269H56.1955C56.5614 44.6863 57.4608 43.132 58.7468 42.019C60.0329 40.9056 61.6295 40.2991 63.2746 40.2991C65.1823 40.2995 67.0778 39.9658 68.8876 39.3108C70.6973 38.6562 72.3975 37.6894 73.9235 36.4474L74.9723 35.5939C75.582 37.9179 75.4895 40.393 74.7076 42.6557L74.5912 42.9921H74.5916C74.3168 42.948 74.0398 42.9253 73.7622 42.9253H69.7285V44.6761H73.7622C74.8315 44.6773 75.8568 45.1388 76.6131 45.9595C77.3694 46.7801 77.7947 47.8927 77.7959 49.053V51.6792H52.0614C52.2487 50.6913 52.7439 49.8038 53.4639 49.1656C54.1842 48.5278 55.0845 48.1788 56.0141 48.1777L56.0139 48.1776ZM49.56 56.9315H56.8206V55.1808H49.56V53.43H80.216V55.1808H77.7958V56.9315H80.216V58.6823H49.56V56.9315ZM82.6362 74.4394C82.6358 74.9036 82.4655 75.3484 82.1629 75.6766C81.8604 76.0049 81.4506 76.1897 81.0227 76.1901H48.7533C48.3254 76.1897 47.9156 76.0049 47.6131 75.6766C47.3106 75.3483 47.1402 74.9036 47.1398 74.4394V60.4331H82.6362L82.6362 74.4394Z" fill="#424B25"/>
<path d="M58.4341 55.1807H76.1823V56.9314H58.4341V55.1807Z" fill="#424B25"/>
<path d="M64.8877 72.6885C65.9574 72.6885 66.9834 72.2273 67.7401 71.4067C68.4964 70.5856 68.9214 69.4722 68.9214 68.3115C68.9214 67.1508 68.4964 66.0375 67.7401 65.2163C66.9834 64.3957 65.9574 63.9346 64.8877 63.9346C63.818 63.9346 62.792 64.3957 62.0353 65.2163C61.2789 66.0374 60.854 67.1508 60.854 68.3115C60.8551 69.4718 61.2804 70.5844 62.0367 71.4051C62.793 72.2258 63.8184 72.6873 64.8877 72.6885ZM64.8877 65.6854C65.5295 65.6854 66.1454 65.962 66.5991 66.4544C67.0528 66.9469 67.3078 67.6152 67.3078 68.3115C67.3078 69.0078 67.0529 69.6762 66.5991 70.1685C66.1453 70.6608 65.5294 70.9376 64.8877 70.9376C64.246 70.9376 63.63 70.6609 63.1763 70.1685C62.7226 69.6761 62.4675 69.0078 62.4675 68.3115C62.4682 67.6151 62.7236 66.9476 63.1774 66.4555C63.6308 65.9631 64.246 65.6861 64.8877 65.6853L64.8877 65.6854Z" fill="#424B25"/>
<path d="M19.1778 92.5762H20.3126V98.373L15.2677 92.2207H13.2032V92.5762H14.297V100.068H13.2032V100.424H16.0196C15.9467 100.205 15.8237 100.087 15.6505 100.068H14.8575V93.998L20.1759 100.492L20.8731 100.355V92.5762H21.9669V92.2207H19.1778V92.5762ZM27.4083 100.561C28.0463 100.561 28.4382 100.273 28.5841 99.6992C28.6296 99.5352 28.657 99.3483 28.6661 99.1387L28.3106 99.125C28.2468 99.7721 28.0737 100.1 27.7911 100.109C27.5724 100.091 27.4584 99.8587 27.4493 99.4121V96.541C27.4311 95.1374 26.6609 94.431 25.1388 94.4219C24.0359 94.4219 23.3158 94.668 22.9786 95.1602C22.8783 95.3151 22.8282 95.4701 22.8282 95.625C22.8282 95.9167 22.9649 96.1035 23.2384 96.1855C23.3113 96.2038 23.3842 96.2129 23.4571 96.2129C23.7397 96.2129 23.9356 96.0625 24.045 95.7617C24.0632 95.7161 24.086 95.6478 24.1134 95.5566C24.2319 95.1921 24.3777 94.9596 24.5509 94.8594C24.6785 94.7956 24.8334 94.7637 25.0157 94.7637C25.754 94.7819 26.1277 95.2604 26.1368 96.1992V97.0742C23.9493 97.1016 22.7416 97.5983 22.5138 98.5645C22.4864 98.6921 22.4727 98.8242 22.4727 98.9609C22.4727 99.6901 22.7872 100.178 23.4161 100.424C23.6531 100.515 23.9129 100.561 24.1954 100.561C24.8881 100.561 25.4441 100.324 25.8634 99.8496C26.0001 99.6855 26.1049 99.5124 26.1778 99.3301C26.3145 100.141 26.7247 100.551 27.4083 100.561ZM24.756 100C24.2546 100 23.9584 99.7038 23.8673 99.1113C23.849 99.002 23.8399 98.8835 23.8399 98.7559C23.8399 98.1361 24.1681 97.7441 24.8243 97.5801C25.1615 97.498 25.599 97.4525 26.1368 97.4434V98.6328C25.9819 99.2708 25.6629 99.6947 25.1798 99.9043C25.0339 99.9681 24.8927 100 24.756 100ZM28.9806 94.9551H29.9376V98.6328C29.9376 99.8268 30.4343 100.469 31.4278 100.561C31.5099 100.57 31.5873 100.574 31.6602 100.574C32.435 100.574 32.95 100.191 33.2052 99.4258C33.2507 99.2891 33.2872 99.1478 33.3145 99.002L32.9454 98.9336C32.7449 99.7448 32.4168 100.155 31.961 100.164C31.4962 100.146 31.2592 99.7949 31.2501 99.1113V94.9551H33.2325V94.6133H31.2501V93.0273L29.9376 93.3145V94.6133H28.9806V94.9551ZM40.4376 100.082H39.8497V94.5859H37.5938V94.9277H38.5235V98.0859C38.4962 98.8607 38.2227 99.4076 37.7032 99.7266C37.4936 99.8542 37.2794 99.918 37.0606 99.918C36.4044 99.918 36.0216 99.5671 35.9122 98.8652C35.894 98.7376 35.8849 98.61 35.8849 98.4824V94.5859H33.629V94.9277H34.5724V98.2637C34.5815 99.7858 35.2332 100.551 36.5274 100.561C37.2384 100.561 37.808 100.269 38.2364 99.6855C38.364 99.5124 38.4688 99.3301 38.5509 99.1387L38.6466 100.424H40.7794C40.7794 100.223 40.7201 100.114 40.6017 100.096C40.5561 100.087 40.5014 100.082 40.4376 100.082ZM44.7169 100.082H43.7188V97.4434C43.7188 96.4954 43.9604 95.8073 44.4435 95.3789C44.5893 95.2513 44.7214 95.1829 44.8399 95.1738C44.9675 95.1738 45.0951 95.2832 45.2227 95.502C45.3777 95.7754 45.5326 95.9395 45.6876 95.9941C45.7514 96.0124 45.8198 96.0215 45.8927 96.0215C46.2117 96.0215 46.4259 95.8711 46.5352 95.5703C46.5626 95.4883 46.5763 95.4062 46.5763 95.3242C46.5763 94.8958 46.3621 94.627 45.9337 94.5176C45.8334 94.4993 45.7332 94.4902 45.6329 94.4902C45.086 94.4902 44.5938 94.7181 44.1563 95.1738C43.9558 95.3926 43.8009 95.6387 43.6915 95.9121L43.6231 94.5859H41.4767V94.9277H42.4063V99.3027C42.4063 99.7129 42.2742 99.9544 42.0099 100.027C41.8914 100.064 41.7136 100.082 41.4767 100.082V100.424H45.0587C45.0587 100.223 44.9994 100.114 44.881 100.096C44.8354 100.087 44.7807 100.082 44.7169 100.082ZM51.9767 100.561C52.6147 100.561 53.0066 100.273 53.1524 99.6992C53.198 99.5352 53.2254 99.3483 53.2345 99.1387L52.879 99.125C52.8152 99.7721 52.642 100.1 52.3595 100.109C52.1407 100.091 52.0268 99.8587 52.0177 99.4121V96.541C51.9994 95.1374 51.2293 94.431 49.7071 94.4219C48.6043 94.4219 47.8842 94.668 47.547 95.1602C47.4467 95.3151 47.3966 95.4701 47.3966 95.625C47.3966 95.9167 47.5333 96.1035 47.8067 96.1855C47.8796 96.2038 47.9526 96.2129 48.0255 96.2129C48.308 96.2129 48.504 96.0625 48.6134 95.7617C48.6316 95.7161 48.6544 95.6478 48.6817 95.5566C48.8002 95.1921 48.9461 94.9596 49.1192 94.8594C49.2468 94.7956 49.4018 94.7637 49.5841 94.7637C50.3224 94.7819 50.6961 95.2604 50.7052 96.1992V97.0742C48.5177 97.1016 47.31 97.5983 47.0821 98.5645C47.0548 98.6921 47.0411 98.8242 47.0411 98.9609C47.0411 99.6901 47.3556 100.178 47.9845 100.424C48.2214 100.515 48.4812 100.561 48.7638 100.561C49.4565 100.561 50.0125 100.324 50.4317 99.8496C50.5685 99.6855 50.6733 99.5124 50.7462 99.3301C50.8829 100.141 51.2931 100.551 51.9767 100.561ZM49.3243 100C48.823 100 48.5268 99.7038 48.4356 99.1113C48.4174 99.002 48.4083 98.8835 48.4083 98.7559C48.4083 98.1361 48.7364 97.7441 49.3927 97.5801C49.7299 97.498 50.1674 97.4525 50.7052 97.4434V98.6328C50.5502 99.2708 50.2312 99.6947 49.7481 99.9043C49.6023 99.9681 49.461 100 49.3243 100ZM56.7345 100.082H56.0099V91.5371H53.6583V91.8789H54.6974V99.2891C54.6974 99.6901 54.5698 99.9316 54.3145 100.014C54.1687 100.059 53.95 100.082 53.6583 100.082V100.424H57.0626C57.0626 100.232 57.0033 100.123 56.8849 100.096C56.8393 100.087 56.7892 100.082 56.7345 100.082ZM60.5352 97.5391C60.5352 98.7331 60.9773 99.5944 61.8614 100.123C62.3536 100.415 62.9142 100.561 63.5431 100.561C64.491 100.561 65.211 100.251 65.7032 99.6309C65.8399 99.4577 65.9493 99.2708 66.0313 99.0703L65.6759 98.9609C65.3751 99.6172 64.8738 100.009 64.172 100.137C64.0261 100.164 63.8803 100.178 63.7345 100.178C62.9597 100.178 62.4356 99.7402 62.1622 98.8652C62.0437 98.4733 61.9845 98.013 61.9845 97.4844C61.9936 95.6797 62.5222 94.7728 63.5704 94.7637C64.0261 94.7637 64.3041 94.9596 64.4044 95.3516C64.4226 95.4154 64.4408 95.5247 64.4591 95.6797C64.5229 96.0716 64.6277 96.3177 64.7735 96.418C64.8829 96.4818 65.0151 96.5182 65.17 96.5273C65.5619 96.5365 65.7944 96.3815 65.8673 96.0625C65.8855 95.9987 65.8946 95.9395 65.8946 95.8848C65.8946 95.4564 65.6257 95.0918 65.088 94.791C64.6414 94.5449 64.1264 94.4219 63.5431 94.4219C62.4402 94.4219 61.6153 94.832 61.0685 95.6523C60.713 96.181 60.5352 96.8099 60.5352 97.5391ZM68.0411 97.4844C68.1323 95.7435 68.6609 94.8366 69.627 94.7637C70.4929 94.7637 71.0033 95.3288 71.1583 96.459C71.1948 96.7507 71.213 97.0742 71.213 97.4297C71.1948 99.2708 70.6707 100.201 69.6407 100.219C68.7293 100.219 68.2097 99.5807 68.0821 98.3047C68.0548 98.0586 68.0411 97.7852 68.0411 97.4844ZM69.6681 94.4219C68.6928 94.4219 67.9089 94.7546 67.3165 95.4199C66.8334 95.9668 66.5919 96.6367 66.5919 97.4297C66.5919 98.5326 66.9838 99.3757 67.7677 99.959C68.2963 100.36 68.907 100.561 69.5997 100.561C70.5476 100.561 71.3178 100.223 71.9102 99.5488C72.4115 98.9746 72.6622 98.2773 72.6622 97.457C72.6622 96.3542 72.2612 95.5202 71.4591 94.9551C70.9395 94.5996 70.3425 94.4219 69.6681 94.4219ZM75.7794 100.191C76.3992 100.191 76.7957 99.9954 76.9688 99.6035C77.0235 99.485 77.0509 99.362 77.0509 99.2344C77.0509 98.8242 76.7638 98.4733 76.1895 98.1816C76.0711 98.1178 75.8751 98.0267 75.6017 97.9082C74.8816 97.5983 74.4031 97.3112 74.1661 97.0469C73.9109 96.7552 73.7833 96.4134 73.7833 96.0215C73.7833 95.3379 74.157 94.8639 74.9044 94.5996C75.2416 94.4811 75.6108 94.4219 76.0118 94.4219C76.6681 94.4219 77.2058 94.5495 77.6251 94.8047C77.6251 94.5404 77.6935 94.39 77.8302 94.3535C77.8757 94.3444 77.9259 94.3398 77.9806 94.3398V96.0488H77.5977C77.5613 95.2103 77.101 94.7865 76.2169 94.7773C75.5789 94.7773 75.1824 94.9733 75.0274 95.3652C74.991 95.4655 74.9727 95.5703 74.9727 95.6797C74.9727 96.0716 75.2507 96.4089 75.8067 96.6914C75.9252 96.7461 76.1166 96.8281 76.381 96.9375C77.1101 97.2474 77.5932 97.5345 77.8302 97.7988C78.1036 98.1087 78.2403 98.4688 78.2403 98.8789C78.2403 99.6263 77.8484 100.132 77.0645 100.396C76.7455 100.506 76.3901 100.561 75.9981 100.561C75.2781 100.551 74.6629 100.396 74.1524 100.096C74.1524 100.333 74.0932 100.469 73.9747 100.506C73.92 100.515 73.8562 100.52 73.7833 100.52V98.4414H74.2071C74.2254 99.599 74.7494 100.182 75.7794 100.191ZM81.795 100.082H81.3302L81.3438 96.7871C81.4076 96.0488 81.6811 95.5247 82.1642 95.2148C82.3464 95.1055 82.5242 95.0508 82.6974 95.0508C83.0984 95.0508 83.3855 95.2786 83.5587 95.7344C83.6316 95.944 83.6681 96.1855 83.6681 96.459V99.3027C83.6681 99.6947 83.5724 99.9316 83.381 100.014C83.2625 100.059 83.0847 100.082 82.8477 100.082V100.424H85.7735C85.7735 100.223 85.7143 100.114 85.5958 100.096C85.5502 100.087 85.4955 100.082 85.4317 100.082H84.9669V96.6367V96.541C85.0854 95.8574 85.377 95.3926 85.8419 95.1465C85.9877 95.0736 86.1336 95.0371 86.2794 95.0371C86.7078 95.0371 87.0086 95.2695 87.1817 95.7344C87.2638 95.9531 87.3048 96.1947 87.3048 96.459V99.3027C87.3048 99.6947 87.2136 99.9316 87.0313 100.014C86.922 100.059 86.7442 100.082 86.4981 100.082V100.424H89.5606C89.5606 100.223 89.5014 100.114 89.3829 100.096C89.3373 100.087 89.2826 100.082 89.2188 100.082H88.6173V96.6094C88.6173 95.6797 88.3119 95.028 87.7013 94.6543C87.4278 94.4993 87.1362 94.4219 86.8263 94.4219C86.0698 94.4219 85.4819 94.7637 85.0626 95.4473C84.9897 95.5658 84.9259 95.6888 84.8712 95.8164C84.6798 95.1237 84.3061 94.6862 83.7501 94.5039C83.586 94.4492 83.4265 94.4219 83.2716 94.4219C82.5333 94.4219 81.9545 94.7454 81.5352 95.3926C81.4532 95.5293 81.3803 95.666 81.3165 95.8027L81.2481 94.5859H79.088V94.9277H80.0177V99.3027C80.0177 99.7129 79.8855 99.9544 79.6212 100.027C79.4936 100.064 79.3158 100.082 79.088 100.082V100.424H82.1368C82.1368 100.223 82.0685 100.114 81.9317 100.096C81.8953 100.087 81.8497 100.082 81.795 100.082ZM93.2794 94.7637C93.8627 94.7637 94.2319 95.0599 94.3868 95.6523C94.4324 95.8255 94.4552 96.0033 94.4552 96.1855C94.4552 96.6322 94.2683 96.9056 93.8946 97.0059C93.685 97.0605 93.3888 97.0788 93.006 97.0605L91.7892 97.0332C91.8256 95.8665 92.1629 95.1419 92.8009 94.8594C92.9467 94.7956 93.1062 94.7637 93.2794 94.7637ZM95.7267 99.0703L95.3985 98.9609C95.0977 99.5898 94.6329 99.9772 94.004 100.123C93.8582 100.16 93.7123 100.178 93.5665 100.178C92.4272 100.178 91.8347 99.2663 91.7892 97.4434C91.7892 97.4342 91.7892 97.4251 91.7892 97.416L93.2794 97.4434C94.5281 97.4707 95.3074 97.3203 95.6173 96.9922C95.7631 96.819 95.836 96.6003 95.836 96.3359C95.836 95.6523 95.4942 95.1328 94.8106 94.7773C94.3549 94.5404 93.8399 94.4219 93.2657 94.4219C92.1811 94.4219 91.3744 94.8366 90.8458 95.666C90.5086 96.1947 90.3399 96.8099 90.3399 97.5117C90.3399 98.724 90.782 99.5944 91.6661 100.123C92.1492 100.415 92.6961 100.561 93.3067 100.561C94.3367 100.561 95.0795 100.191 95.5352 99.4531C95.6082 99.3255 95.672 99.1979 95.7267 99.0703ZM96.506 94.9551H97.463V98.6328C97.463 99.8268 97.9597 100.469 98.9532 100.561C99.0352 100.57 99.1127 100.574 99.1856 100.574C99.9604 100.574 100.475 100.191 100.731 99.4258C100.776 99.2891 100.813 99.1478 100.84 99.002L100.471 98.9336C100.27 99.7448 99.9421 100.155 99.4864 100.164C99.0216 100.146 98.7846 99.7949 98.7755 99.1113V94.9551H100.758V94.6133H98.7755V93.0273L97.463 93.3145V94.6133H96.506V94.9551ZM104.19 100.082H103.574V94.5859H101.291V94.9277H102.262V99.3027C102.262 99.7129 102.116 99.959 101.824 100.041C101.697 100.068 101.519 100.082 101.291 100.082V100.424H104.531C104.531 100.223 104.472 100.114 104.354 100.096C104.308 100.087 104.253 100.082 104.19 100.082ZM103.725 92.6719C103.725 92.3255 103.57 92.0703 103.26 91.9062C103.132 91.8424 103 91.8105 102.863 91.8105C102.517 91.8105 102.266 91.9655 102.111 92.2754C102.048 92.403 102.016 92.5352 102.016 92.6719C102.016 93.0365 102.175 93.2917 102.494 93.4375C102.613 93.4922 102.736 93.5195 102.863 93.5195C103.228 93.5195 103.488 93.3646 103.643 93.0547C103.697 92.9362 103.725 92.8086 103.725 92.6719ZM105.365 97.5391C105.365 98.7331 105.807 99.5944 106.691 100.123C107.184 100.415 107.744 100.561 108.373 100.561C109.321 100.561 110.041 100.251 110.533 99.6309C110.67 99.4577 110.779 99.2708 110.861 99.0703L110.506 98.9609C110.205 99.6172 109.704 100.009 109.002 100.137C108.856 100.164 108.71 100.178 108.565 100.178C107.79 100.178 107.266 99.7402 106.992 98.8652C106.874 98.4733 106.815 98.013 106.815 97.4844C106.824 95.6797 107.352 94.7728 108.4 94.7637C108.856 94.7637 109.134 94.9596 109.234 95.3516C109.253 95.4154 109.271 95.5247 109.289 95.6797C109.353 96.0716 109.458 96.3177 109.604 96.418C109.713 96.4818 109.845 96.5182 110 96.5273C110.392 96.5365 110.624 96.3815 110.697 96.0625C110.716 95.9987 110.725 95.9395 110.725 95.8848C110.725 95.4564 110.456 95.0918 109.918 94.791C109.471 94.5449 108.956 94.4219 108.373 94.4219C107.27 94.4219 106.445 94.832 105.899 95.6523C105.543 96.181 105.365 96.8099 105.365 97.5391ZM113.555 100.191C114.175 100.191 114.571 99.9954 114.744 99.6035C114.799 99.485 114.826 99.362 114.826 99.2344C114.826 98.8242 114.539 98.4733 113.965 98.1816C113.846 98.1178 113.65 98.0267 113.377 97.9082C112.657 97.5983 112.178 97.3112 111.941 97.0469C111.686 96.7552 111.559 96.4134 111.559 96.0215C111.559 95.3379 111.932 94.8639 112.68 94.5996C113.017 94.4811 113.386 94.4219 113.787 94.4219C114.443 94.4219 114.981 94.5495 115.4 94.8047C115.4 94.5404 115.469 94.39 115.606 94.3535C115.651 94.3444 115.701 94.3398 115.756 94.3398V96.0488H115.373C115.337 95.2103 114.876 94.7865 113.992 94.7773C113.354 94.7773 112.958 94.9733 112.803 95.3652C112.766 95.4655 112.748 95.5703 112.748 95.6797C112.748 96.0716 113.026 96.4089 113.582 96.6914C113.701 96.7461 113.892 96.8281 114.156 96.9375C114.886 97.2474 115.369 97.5345 115.606 97.7988C115.879 98.1087 116.016 98.4688 116.016 98.8789C116.016 99.6263 115.624 100.132 114.84 100.396C114.521 100.506 114.165 100.561 113.774 100.561C113.053 100.551 112.438 100.396 111.928 100.096C111.928 100.333 111.869 100.469 111.75 100.506C111.695 100.515 111.632 100.52 111.559 100.52V98.4414H111.983C112.001 99.599 112.525 100.182 113.555 100.191Z" fill="#5FD788"/>
<defs>
<filter id="filter0_d_25_25854" x="0.55957" y="0.383789" width="132.284" height="132.327" filterUnits="userSpaceOnUse" color-interpolation-filters="sRGB">
<feFlood flood-opacity="0" result="BackgroundImageFix"/>
<feColorMatrix in="SourceAlpha" type="matrix" values="0 0 0 0 0 0 0 0 0 0 0 0 0 0 0 0 0 0 127 0" result="hardAlpha"/>
<feOffset dx="2" dy="2"/>
<feGaussianBlur stdDeviation="2.5"/>
<feComposite in2="hardAlpha" operator="out"/>
<feColorMatrix type="matrix" values="0 0 0 0 0 0 0 0 0 0 0 0 0 0 0 0 0 0 0.15 0"/>
<feBlend mode="normal" in2="BackgroundImageFix" result="effect1_dropShadow_25_25854"/>
<feBlend mode="normal" in="SourceGraphic" in2="effect1_dropShadow_25_25854" result="shape"/>
</filter>
</defs>
</svg>
