<svg width="16" height="17" viewBox="0 0 16 17" fill="none" xmlns="http://www.w3.org/2000/svg">
<path d="M12.4439 12.0128L15.8698 15.366C16.0434 15.5359 16.0434 15.8113 15.8698 15.9812C15.6963 16.1511 15.4149 16.1511 15.2413 15.9812L11.8154 12.628C10.5617 13.7112 8.91485 14.3686 7.11111 14.3686C3.18375 14.3686 0 11.2524 0 7.4084C0 3.56441 3.18375 0.448242 7.11111 0.448242C11.0385 0.448242 14.2222 3.56441 14.2222 7.4084C14.2222 9.17385 13.5507 10.7858 12.4439 12.0128ZM7.11111 13.4985C10.5475 13.4985 13.3333 10.7719 13.3333 7.4084C13.3333 4.04491 10.5475 1.31826 7.11111 1.31826C3.67467 1.31826 0.888889 4.04491 0.888889 7.4084C0.888889 10.7719 3.67467 13.4985 7.11111 13.4985Z" fill="black"/>
</svg>
