<svg width="15" height="17" viewBox="0 0 15 17" fill="none" xmlns="http://www.w3.org/2000/svg">
<path d="M14.0493 14.692L13.4942 4.84082H10.7214V4.0455C10.7214 2.06188 9.07272 0.448242 7.04616 0.448242C5.0196 0.448242 3.37096 2.06196 3.37096 4.0455V4.84082H0.478081L0.000561102 14.7346L7.77038e-05 14.7518C-0.0038423 15.1078 0.140719 15.4573 0.396479 15.7101C0.652319 15.9633 1.00776 16.1086 1.37168 16.1086H12.6798C13.0548 16.1086 13.418 15.9557 13.676 15.6889C13.9339 15.4221 14.07 15.0588 14.0493 14.692ZM4.32952 4.0455C4.32952 2.5793 5.54816 1.38645 7.04616 1.38645C8.54408 1.38645 9.7628 2.5793 9.7628 4.0455V4.84082H4.32944V4.0455H4.32952ZM12.9798 15.0438C12.9019 15.1242 12.7926 15.1703 12.6797 15.1703H1.3716C1.262 15.1703 1.15504 15.1266 1.07784 15.0502C1.00248 14.9758 0.959201 14.8735 0.958481 14.7685L1.39232 5.77903H3.3708V6.9671C3.3708 7.2262 3.58536 7.43621 3.85008 7.43621C4.1148 7.43621 4.32936 7.2262 4.32936 6.9671V5.77903H9.76272V6.9671C9.76272 7.2262 9.97728 7.43621 10.242 7.43621C10.5067 7.43621 10.7212 7.2262 10.7212 6.9671V5.77903H12.5869L13.0919 14.7438C13.0984 14.8542 13.0574 14.9636 12.9798 15.0438Z" fill="black"/>
</svg>
